<?xml version="1.0" standalone="no"?>
<!DOCTYPE svg PUBLIC "-//W3C//DTD SVG 1.1//EN" "http://www.w3.org/Graphics/SVG/1.1/DTD/svg11.dtd">
<svg width="100%" height="100%" viewBox="0 0 270 53" version="1.1" xmlns="http://www.w3.org/2000/svg" xmlns:xlink="http://www.w3.org/1999/xlink" xml:space="preserve" style="fill-rule:evenodd;clip-rule:evenodd;stroke-linejoin:round;stroke-miterlimit:1.41421;">
    <g id="Group-3" transform="matrix(1,0,0,1,39,27)">
        <g id="SUPERGIANT-Copy-7" transform="matrix(0.814436,0,2.31112e-33,0.814436,-44.9477,-32.9467)">
            <path d="M92.695,51.216C93.459,51.321 94.283,51.41 95.166,51.485C95.93,51.56 96.802,51.62 97.783,51.665C98.764,51.71 99.8,51.732 100.894,51.732C102.346,51.732 103.499,51.639 104.353,51.452C105.206,51.264 105.857,50.987 106.307,50.621C106.756,50.254 107.044,49.801 107.171,49.262C107.299,48.723 107.362,48.101 107.362,47.397C107.362,46.843 107.336,46.338 107.284,45.881C107.231,45.425 107.108,45.017 106.913,44.657C106.718,44.298 106.441,43.987 106.082,43.725C105.723,43.463 105.229,43.25 104.6,43.085L98.063,41.378C97.03,41.108 96.154,40.745 95.436,40.289C94.717,39.832 94.137,39.252 93.695,38.548C93.253,37.844 92.931,36.994 92.729,35.999C92.527,35.003 92.426,33.831 92.426,32.483C92.426,30.896 92.665,29.522 93.145,28.362C93.624,27.201 94.301,26.247 95.177,25.498C96.053,24.749 97.113,24.195 98.355,23.836C99.598,23.477 100.983,23.297 102.511,23.297C103.784,23.297 104.948,23.368 106.003,23.51C107.059,23.653 107.969,23.806 108.732,23.971C109.631,24.165 110.447,24.382 111.181,24.622L111.181,28.777C110.507,28.687 109.796,28.605 109.047,28.53C108.403,28.455 107.681,28.392 106.879,28.339C106.078,28.287 105.251,28.261 104.397,28.261C103.065,28.261 101.972,28.306 101.118,28.396C100.265,28.485 99.591,28.673 99.097,28.957C98.603,29.242 98.258,29.646 98.063,30.17C97.869,30.694 97.771,31.39 97.771,32.259C97.771,32.738 97.798,33.165 97.85,33.539C97.903,33.913 98.022,34.243 98.209,34.527C98.397,34.812 98.666,35.059 99.018,35.269C99.37,35.478 99.845,35.673 100.444,35.853L106.531,37.604C107.31,37.829 108.002,38.065 108.609,38.312C109.215,38.559 109.743,38.851 110.192,39.188C110.642,39.525 111.027,39.918 111.349,40.367C111.671,40.816 111.929,41.352 112.124,41.973C112.319,42.595 112.461,43.325 112.551,44.163C112.641,45.002 112.686,45.967 112.686,47.061C112.686,48.768 112.54,50.231 112.248,51.452C111.956,52.672 111.405,53.668 110.597,54.439C109.788,55.21 108.676,55.779 107.261,56.146C105.846,56.513 104.016,56.696 101.77,56.696C100.033,56.696 98.591,56.618 97.446,56.46C96.3,56.303 95.368,56.127 94.649,55.933C93.826,55.708 93.174,55.453 92.695,55.169L92.695,51.216ZM116.407,23.948L121.753,23.948L121.753,45.376C121.753,46.649 121.865,47.697 122.09,48.521C122.314,49.344 122.685,49.992 123.202,50.463C123.718,50.935 124.388,51.264 125.212,51.452C126.035,51.639 127.046,51.732 128.244,51.732C129.322,51.732 130.262,51.639 131.063,51.452C131.864,51.264 132.534,50.935 133.073,50.463C133.612,49.992 134.013,49.344 134.275,48.521C134.537,47.697 134.668,46.649 134.668,45.376L134.668,23.948L140.014,23.948L140.014,45.69C140.014,47.562 139.8,49.187 139.374,50.564C138.947,51.942 138.262,53.084 137.318,53.99C136.375,54.896 135.158,55.573 133.668,56.022C132.179,56.472 130.37,56.696 128.244,56.696C126.118,56.696 124.306,56.475 122.809,56.034C121.311,55.592 120.087,54.922 119.136,54.023C118.185,53.125 117.493,51.991 117.059,50.621C116.624,49.25 116.407,47.637 116.407,45.78L116.407,23.948ZM145.577,23.948L158.29,23.948C158.979,23.948 159.675,24.001 160.379,24.105C161.083,24.21 161.757,24.409 162.4,24.701C163.044,24.993 163.643,25.386 164.197,25.88C164.751,26.374 165.238,27.007 165.657,27.778C166.076,28.549 166.402,29.481 166.634,30.574C166.866,31.667 166.982,32.948 166.982,34.415C166.982,35.882 166.855,37.159 166.601,38.245C166.346,39.33 166.002,40.255 165.567,41.019C165.133,41.782 164.624,42.404 164.04,42.883C163.456,43.362 162.835,43.74 162.176,44.017C161.517,44.294 160.839,44.481 160.143,44.579C159.447,44.676 158.762,44.725 158.088,44.725L150.968,44.725L150.968,56L145.577,56L145.577,23.948ZM157.459,39.716C158.268,39.716 158.923,39.581 159.424,39.312C159.926,39.042 160.323,38.668 160.615,38.188C160.907,37.709 161.105,37.148 161.21,36.504C161.315,35.86 161.367,35.164 161.367,34.415C161.367,33.681 161.315,32.985 161.21,32.326C161.105,31.667 160.907,31.087 160.615,30.585C160.323,30.084 159.926,29.687 159.424,29.395C158.923,29.103 158.268,28.957 157.459,28.957L150.968,28.957L150.968,39.716L157.459,39.716ZM170.367,23.948L189.639,23.948L189.639,28.957L175.758,28.957L175.758,37.38L187.393,37.38L187.393,42.299L175.758,42.299L175.758,50.991L190.021,50.991L190.021,56L170.367,56L170.367,23.948ZM193.675,23.948L205.602,23.948C206.455,23.948 207.29,24.004 208.106,24.117C208.922,24.229 209.693,24.427 210.419,24.712C211.146,24.996 211.808,25.382 212.407,25.869C213.006,26.355 213.527,26.98 213.968,27.744C214.41,28.508 214.751,29.421 214.99,30.484C215.23,31.548 215.35,32.798 215.35,34.235C215.35,35.194 215.271,36.051 215.114,36.807C214.957,37.563 214.747,38.233 214.485,38.817C214.223,39.401 213.923,39.91 213.586,40.345C213.25,40.779 212.909,41.153 212.564,41.468C211.741,42.187 210.813,42.688 209.779,42.973L209.779,43.018L216.54,56L210.386,56L204.389,44.23L199.065,44.23L199.065,56L193.675,56L193.675,23.948ZM205.557,39.154C208.372,39.154 209.779,37.41 209.779,33.921C209.779,33.007 209.678,32.233 209.476,31.596C209.274,30.96 208.982,30.447 208.6,30.058C208.218,29.668 207.758,29.388 207.219,29.215C206.68,29.043 206.081,28.957 205.422,28.957L199.065,28.957L199.065,39.154L205.557,39.154ZM218.532,39.671C218.532,36.601 218.865,34.022 219.532,31.933C220.198,29.844 221.149,28.16 222.384,26.879C223.62,25.599 225.106,24.682 226.843,24.128C228.58,23.574 230.526,23.297 232.683,23.297C234.135,23.297 235.434,23.372 236.58,23.521C237.725,23.671 238.71,23.836 239.533,24.016C240.477,24.225 241.323,24.457 242.071,24.712L242.071,28.777C241.263,28.687 240.394,28.613 239.466,28.553C238.672,28.493 237.766,28.437 236.748,28.384C235.73,28.332 234.682,28.306 233.604,28.306C231.732,28.306 230.182,28.504 228.954,28.901C227.726,29.298 226.753,29.945 226.034,30.844C225.315,31.742 224.81,32.914 224.518,34.359C224.226,35.804 224.08,37.575 224.08,39.671C224.08,41.812 224.234,43.643 224.541,45.163C224.847,46.682 225.353,47.929 226.057,48.902C226.76,49.876 227.689,50.591 228.842,51.047C229.995,51.504 231.417,51.732 233.109,51.732C233.843,51.732 234.509,51.71 235.108,51.665C235.707,51.62 236.216,51.56 236.636,51.485C237.13,51.41 237.564,51.321 237.938,51.216L237.938,42.973L232.099,42.973L232.099,38.054L243.284,38.054L243.284,54.473C242.401,54.892 241.435,55.266 240.387,55.596C239.488,55.88 238.429,56.135 237.208,56.359C235.988,56.584 234.667,56.696 233.244,56.696C230.923,56.696 228.853,56.434 227.034,55.91C225.214,55.386 223.676,54.473 222.418,53.17C221.16,51.867 220.198,50.123 219.532,47.937C218.865,45.75 218.532,42.995 218.532,39.671ZM247.859,23.948L253.25,23.948L253.25,56L247.859,56L247.859,23.948ZM265.552,23.948L272.694,23.948L283.184,56L277.231,56L274.536,47.308L263.62,47.308L261.037,56L255.152,56L265.552,23.948ZM273.054,42.479L269.101,28.912L269.011,28.912L265.058,42.479L273.054,42.479ZM285.086,23.948L294.025,23.948L305.705,50.991L305.817,50.991C305.802,50.452 305.787,49.906 305.772,49.352C305.757,48.872 305.75,48.356 305.75,47.802L305.75,46.207L305.75,23.948L311.073,23.948L311.073,56L302.336,56L292.453,33.449C292.184,32.82 291.929,32.236 291.689,31.697C291.45,31.158 291.248,30.687 291.083,30.282C290.873,29.803 290.686,29.361 290.521,28.957L290.432,28.957L290.432,56L285.086,56L285.086,23.948ZM322.544,28.912L312.931,28.912L312.931,23.948L337.593,23.948L337.593,28.912L327.89,28.912L327.89,56L322.544,56L322.544,28.912Z" style="fill:rgb(72,83,105);"/>
        </g>
        <g id="Oval-1-Copy-21" transform="matrix(0.705322,0.407218,-0.407218,0.705322,-23.7182,-40.5523)">
            <path d="M30.459,66.713C42.414,66.713 52.105,56.531 52.105,43.972C52.105,31.412 42.414,21.231 30.459,21.231C18.504,21.231 8.813,31.412 8.813,43.972C8.813,56.531 18.504,66.713 30.459,66.713Z" style="fill:rgb(129,153,167);"/>
        </g>
        <g id="Oval-1-Copy-22" transform="matrix(0.705322,0.407218,-0.407218,0.705322,-28.4904,-43.8614)">
            <path d="M35.111,53.747C47.066,53.747 56.758,43.566 56.758,31.006C56.758,18.447 47.066,8.265 35.111,8.265C23.156,8.265 13.465,18.447 13.465,31.006C13.465,43.566 23.156,53.747 35.111,53.747Z" style="fill:rgb(129,153,167);"/>
        </g>
        <g id="Oval-1-Copy-23" transform="matrix(0.705322,0.407218,-0.407218,0.705322,-21.6877,-48.13)">
            <path d="M49.067,66.713C61.022,66.713 70.714,56.531 70.714,43.972C70.714,31.412 61.022,21.231 49.067,21.231C37.113,21.231 27.421,31.412 27.421,43.972C27.421,56.531 37.113,66.713 49.067,66.713Z" style="fill:rgb(129,153,167);"/>
        </g>
        <g id="Oval-1-Copy-24" transform="matrix(0.705322,0.407218,-0.407218,0.705322,-26.4768,-48.7364)">
            <path d="M47.517,55.368C59.472,55.368 69.163,45.186 69.163,32.627C69.163,20.067 59.472,9.886 47.517,9.886C35.562,9.886 25.87,20.067 25.87,32.627C25.87,45.186 35.562,55.368 47.517,55.368Z" style="fill:rgb(129,153,167);"/>
        </g>
        <g id="Oval-1-Copy-25" transform="matrix(0.705322,0.407218,-0.407218,0.705322,-20.5538,-44.4421)">
            <path d="M41.314,71.575C53.269,71.575 62.96,61.393 62.96,48.834C62.96,36.274 53.269,26.093 41.314,26.093C29.359,26.093 19.668,36.274 19.668,48.834C19.668,61.393 29.359,71.575 41.314,71.575Z" style="fill:rgb(158,178,190);"/>
        </g>
        <g id="Oval-1-Copy-26" transform="matrix(0.705322,0.407218,-0.407218,0.705322,-26.6796,-42.6994)">
            <path d="M33.56,58.609C45.515,58.609 55.207,48.428 55.207,35.868C55.207,23.309 45.515,13.127 33.56,13.127C21.606,13.127 11.914,23.309 11.914,35.868C11.914,48.428 21.606,58.609 33.56,58.609Z" style="fill:rgb(158,178,190);"/>
        </g>
        <g id="Oval-1-Copy-27" transform="matrix(0.705322,0.407218,-0.407218,0.705322,-25.326,-47.7512)">
            <path d="M45.966,58.609C57.921,58.609 67.612,48.428 67.612,35.868C67.612,23.309 57.921,13.127 45.966,13.127C34.011,13.127 24.32,23.309 24.32,35.868C24.32,48.428 34.011,58.609 45.966,58.609Z" style="fill:rgb(158,178,190);"/>
        </g>
        <g id="Oval-1-Copy-28" transform="matrix(0.705322,0.407218,-0.407218,0.705322,-22.8553,-46.4124)">
            <path d="M44.415,65.092C56.37,65.092 66.062,54.91 66.062,42.351C66.062,29.791 56.37,19.61 44.415,19.61C32.46,19.61 22.769,29.791 22.769,42.351C22.769,54.91 32.46,65.092 44.415,65.092Z" style="fill:rgb(215,228,234);"/>
        </g>
        <g id="Oval-1-Copy-29" transform="matrix(0.705322,0.407218,-0.407218,0.705322,-23.7013,-43.255)">
            <path d="M36.662,65.092C48.617,65.092 58.308,54.91 58.308,42.351C58.308,29.791 48.617,19.61 36.662,19.61C24.707,19.61 15.016,29.791 15.016,42.351C15.016,54.91 24.707,65.092 36.662,65.092Z" style="fill:rgb(215,228,234);"/>
        </g>
        <g id="Oval-1-Copy-30" transform="matrix(0.705322,0.407218,-0.407218,0.705322,-27.3228,-45.579)">
            <path d="M39.763,55.368C51.718,55.368 61.41,45.186 61.41,32.627C61.41,20.067 51.718,9.886 39.763,9.886C27.808,9.886 18.117,20.067 18.117,32.627C18.117,45.186 27.808,55.368 39.763,55.368Z" style="fill:rgb(215,228,234);"/>
        </g>
        <g id="Oval-1-Copy-31" transform="matrix(0.705322,0.407218,-0.407218,0.705322,-24.6829,-44.8717)">
            <path d="M39.763,61.851C51.718,61.851 61.41,51.669 61.41,39.11C61.41,26.55 51.718,16.368 39.763,16.368C27.808,16.368 18.117,26.55 18.117,39.11C18.117,51.669 27.808,61.851 39.763,61.851Z" style="fill:white;"/>
        </g>
    </g>
</svg>
